<svg xmlns="http://www.w3.org/2000/svg" xmlns:xlink="http://www.w3.org/1999/xlink" version="1.1" x="0px" y="0px" viewBox="0 0 100 125" enable-background="new 0 0 100 100" xml:space="preserve"><path fill="#000000" d="M78.544,84.644c-0.6-3.724-3.953-7.001-7.635-7.001c-0.364,0-0.734,0.035-1.112,0.097  c-4.254,0.785-3.555,2.195-5.169,2.586c-0.077,0.013-0.154,0.027-0.223,0.027c-0.895,0-1.614-1.284-2.662-3.495  c-0.091-0.172-0.177-0.361-0.267-0.549c-0.082-0.181-0.173-0.371-0.265-0.559l0.056-0.035c-1.154-2.445-2.69-5.617-5.023-9.208  l-6.038-8.816l-3.038-4.611l-0.235-0.356l-1.001-1.524l-0.132-0.203l-0.868-1.306l-0.494-0.755l-1.984-3.018l-12.19-18.506  c-2.831,4.122-1.819,8.648,0.06,12.101l3.898,6.155l1.693,2.661l0.439,0.7l0.712,1.123l0.218,0.333l0.922,1.462l0.043,0.07  l7.314,11.541l6.071,7.209l2.403,2.053c1.802,1.567,3.186,3.18,4.26,4.787l0.021-0.013c0.112,0.175,0.214,0.349,0.32,0.523  c0.106,0.176,0.211,0.349,0.308,0.532c2.068,3.701,2.831,7.349,4.037,10.402c1.049,3.48,4.502,5.904,8.022,5.904  c0.74,0,1.481-0.103,2.207-0.328C77.418,93.578,79.514,88.673,78.544,84.644z M49.884,64.97c-0.016,0-0.036,0-0.052-0.001  c-0.679-0.03-1.198-0.606-1.166-1.278c0.025-0.66,0.564-1.169,1.217-1.169c0.021,0,0.036,0,0.056,0.001  c0.67,0.034,1.198,0.598,1.168,1.276C51.077,64.454,50.533,64.97,49.884,64.97z M73.413,91.611c-0.779,0.451-1.6,0.65-2.414,0.65  c-3.333,0-6.519-3.392-6.16-6.871c0.13-3.001,2.723-4.846,5.448-4.846c1.568,0,3.179,0.609,4.393,1.959  C76.964,85.025,76.757,90.029,73.413,91.611z"/><path fill="#000000" d="M39.67,76.115l0.03,0.021c-1.886,3.222-2.912,5.091-4.074,4.701c-1.573-0.528-0.751-1.874-4.923-3.038  c-4.006-1.11-8.299,2.068-9.335,6.09c-1.318,3.922,0.316,8.998,4.413,10.416c4.045,1.675,9.047-0.545,10.692-4.62  c1.673-3.337,2.851-7.474,6.006-11.416l0.023,0.019c1.184-1.423,2.637-2.821,4.486-4.139l2.395-1.714l-4.025-4.783  C42.805,70.899,41.013,73.823,39.67,76.115z M25.855,91.286c-3.186-1.877-2.944-6.869-0.441-9.182  c3.657-3.38,9.761-0.954,9.536,3.759C35.012,90.214,29.618,93.941,25.855,91.286z"/><path fill="#000000" d="M63.584,54.94c-2.754-0.12-5.457-0.554-8.126-0.966l-2.315,2.985l4.13,6.196L63.584,54.94z"/><path fill="#000000" d="M85.997,42.664L83.007,9.536c-0.149-1.643-1.145-3.087-2.628-3.809c-0.649-0.318-1.353-0.476-2.055-0.476  c-0.142,0-0.285,0.008-0.426,0.019c-0.753,0.066-1.485,0.317-2.134,0.739c-3.031,1.97-6.371,3.096-10.212,3.439  c-0.935,0.083-1.881,0.121-2.836,0.121c-4.275,0-8.74-0.76-13.414-1.561c-4.893-0.841-9.925-1.7-15.021-1.7  c-1.22,0-2.441,0.048-3.665,0.159c-5.401,0.492-10.138,2.095-14.486,4.919c-1.467,0.954-2.28,2.631-2.127,4.369l2.984,33.129  c0.15,1.644,1.15,3.086,2.633,3.808c0.656,0.317,1.362,0.477,2.068,0.477c0.138,0,0.276-0.007,0.412-0.018  c0.752-0.07,1.482-0.32,2.138-0.743c2.624-1.702,5.48-2.773,8.691-3.253l-1.348-2.124l-4.008-6.329l-0.052-0.081l-0.044-0.082  c-2.996-5.504-2.961-10.989,0.094-15.445l2.418-3.527l2.353,3.571l12.534,19.035l2.041,3.105l1.396,2.117l0.457,0.693  c0.085,0.013,0.172,0.027,0.254,0.04c0.825,0.14,0.832,0.141,1.673,0.286c1.917,0.328,3.853,0.658,5.807,0.94  c2.781,0.4,5.593,0.701,8.427,0.747c0.27,0.005,0.54,0.008,0.812,0.008c1.212,0,2.426-0.05,3.642-0.161  c5.398-0.485,10.138-2.093,14.487-4.916C85.333,46.08,86.15,44.397,85.997,42.664z M54.168,39.724v3.674h-2.226V39.83  c-2.05-0.035-4.17-0.671-5.406-1.555l0.848-2.367c1.272,0.848,3.109,1.519,5.088,1.519c2.509,0,4.205-1.449,4.205-3.463  c0-1.943-1.379-3.144-3.993-4.204c-3.604-1.413-5.83-3.039-5.83-6.113c0-2.932,2.084-5.158,5.334-5.689v-3.568h2.191v3.427  c2.12,0.071,3.568,0.636,4.592,1.237l-0.883,2.332c-0.742-0.424-2.19-1.201-4.452-1.201c-2.721,0-3.746,1.625-3.746,3.038  c0,1.837,1.308,2.756,4.382,4.028c3.639,1.484,5.476,3.322,5.476,6.466C59.75,36.509,57.807,39.124,54.168,39.724z"/></svg>