<svg xmlns="http://www.w3.org/2000/svg" xmlns:xlink="http://www.w3.org/1999/xlink" version="1.1" x="0px" y="0px" viewBox="0 0 32 40" enable-background="new 0 0 32 32" xml:space="preserve"><g display="none"><rect x="-160.505" y="-119.75" display="inline" fill="#000000" width="394.5" height="196"/></g><g display="none"><path display="inline" fill="#000000" stroke="#2C3E50" stroke-miterlimit="10" d="M6.955,31.5H2.5c-1.1,0-2-0.9-2-2v-4.515   c0-1.1,0.9-2,2-2h4.455c1.1,0,2,0.9,2,2V29.5C8.955,30.6,8.055,31.5,6.955,31.5z"/><path display="inline" fill="#000000" stroke="#2C3E50" stroke-miterlimit="10" d="M18.227,31.5h-4.455c-1.1,0-2-0.9-2-2v-4.515   c0-1.1,0.9-2,2-2h4.455c1.1,0,2,0.9,2,2V29.5C20.227,30.6,19.327,31.5,18.227,31.5z"/><path display="inline" fill="#000000" stroke="#2C3E50" stroke-miterlimit="10" d="M29.5,31.5h-4.455c-1.1,0-2-0.9-2-2v-4.515   c0-1.1,0.9-2,2-2H29.5c1.1,0,2,0.9,2,2V29.5C31.5,30.6,30.6,31.5,29.5,31.5z"/><line display="inline" fill="#000000" stroke="#2C3E50" stroke-miterlimit="10" x1="16.193" y1="13.5" x2="16.193" y2="22.985"/><polyline display="inline" fill="#000000" stroke="#2C3E50" stroke-miterlimit="10" points="4.727,23.455 4.727,18.243 27.273,18.243    27.273,22.985  "/><ellipse display="inline" fill="#000000" stroke="#2C3E50" stroke-miterlimit="10" cx="16" cy="7" rx="6.626" ry="6.5"/><g display="inline"><path fill="#000000" d="M15.607,11.796v-1.18c-0.671-0.011-1.365-0.222-1.769-0.514l0.277-0.783    c0.416,0.28,1.018,0.502,1.666,0.502c0.821,0,1.376-0.479,1.376-1.145c0-0.643-0.451-1.04-1.307-1.391    c-1.18-0.467-1.908-1.005-1.908-2.021c0-0.97,0.682-1.706,1.746-1.881v-1.18h0.717v1.133c0.694,0.023,1.168,0.21,1.504,0.409    l-0.289,0.771c-0.243-0.14-0.717-0.397-1.457-0.397c-0.891,0-1.226,0.537-1.226,1.005c0,0.608,0.428,0.911,1.434,1.332    c1.191,0.49,1.793,1.098,1.793,2.138c0,0.923-0.636,1.787-1.827,1.986v1.215H15.607z"/></g></g><g><path d="M2.5,32h4.455c1.379,0,2.5-1.121,2.5-2.5v-4.515c0-1.379-1.121-2.5-2.5-2.5H5.227v-3.743h10.466v3.743h-1.92   c-1.379,0-2.5,1.121-2.5,2.5V29.5c0,1.379,1.121,2.5,2.5,2.5h4.454c1.379,0,2.5-1.121,2.5-2.5v-4.515c0-1.379-1.121-2.5-2.5-2.5   h-1.534v-3.743h10.08v3.743h-1.728c-1.379,0-2.5,1.121-2.5,2.5V29.5c0,1.379,1.121,2.5,2.5,2.5H29.5c1.379,0,2.5-1.121,2.5-2.5   v-4.515c0-1.379-1.121-2.5-2.5-2.5h-1.727v-4.743h-11.08v-3.777c3.605-0.344,6.433-3.336,6.433-6.966c0-3.859-3.196-7-7.126-7   S8.874,3.141,8.874,7c0,3.758,3.032,6.825,6.819,6.985v3.757H4.227v4.743H2.5c-1.379,0-2.5,1.121-2.5,2.5V29.5   C0,30.879,1.121,32,2.5,32z M15.607,11.796v-1.18c-0.671-0.011-1.365-0.222-1.769-0.514l0.277-0.783   c0.416,0.28,1.018,0.502,1.666,0.502c0.821,0,1.376-0.479,1.376-1.145c0-0.643-0.451-1.04-1.307-1.391   c-1.18-0.467-1.908-1.005-1.908-2.021c0-0.97,0.682-1.706,1.746-1.881v-1.18h0.717v1.133c0.694,0.023,1.168,0.21,1.504,0.409   l-0.289,0.771c-0.243-0.14-0.717-0.397-1.457-0.397c-0.891,0-1.226,0.537-1.226,1.005c0,0.608,0.428,0.911,1.434,1.332   c1.191,0.49,1.793,1.098,1.793,2.138c0,0.923-0.636,1.787-1.827,1.986v1.215H15.607z"/></g><text x="0" y="47" fill="#000000" font-size="5px" font-weight="bold" font-family="'Helvetica Neue', Helvetica, Arial-Unicode, Arial, Sans-serif">Created by Alfredo Hernandez</text><text x="0" y="52" fill="#000000" font-size="5px" font-weight="bold" font-family="'Helvetica Neue', Helvetica, Arial-Unicode, Arial, Sans-serif">from the Noun Project</text></svg>